<svg xmlns="http://www.w3.org/2000/svg" xmlns:xlink="http://www.w3.org/1999/xlink" width="1400" zoomAndPan="magnify" viewBox="0 0 1050 1049.999947" height="1400" preserveAspectRatio="xMidYMid meet" version="1.0"><defs><g/></defs><g fill="#fffdf5" fill-opacity="1"><g transform="translate(195.140604, 549.374929)"><g><path d="M 20.671875 2.734375 L 31.671875 2.734375 L 31.671875 4.09375 L 1.09375 4.09375 L 1.09375 -71.921875 L 31.671875 -71.921875 L 31.671875 -70.546875 L 20.671875 -70.546875 Z M 20.671875 2.734375 "/></g></g></g><g fill="#fffdf5" fill-opacity="1"><g transform="translate(227.998649, 549.374929)"><g><path d="M 43.875 -51.796875 C 47.632812 -51.796875 51.046875 -50.625 54.109375 -48.28125 C 57.179688 -45.945312 59.625 -42.820312 61.4375 -38.90625 C 63.257812 -35 64.171875 -30.648438 64.171875 -25.859375 C 64.171875 -21.117188 63.257812 -16.789062 61.4375 -12.875 C 59.625 -8.96875 57.179688 -5.84375 54.109375 -3.5 C 51.046875 -1.164062 47.632812 0 43.875 0 C 41.144531 0 38.789062 -0.4375 36.8125 -1.3125 C 34.84375 -2.195312 33.191406 -3.289062 31.859375 -4.59375 C 30.523438 -5.894531 29.476562 -7.195312 28.71875 -8.5 C 27.957031 -9.8125 27.410156 -10.90625 27.078125 -11.78125 C 26.742188 -12.664062 26.578125 -13.109375 26.578125 -13.109375 L 26.578125 4.375 C 26.578125 6.738281 26.726562 8.476562 27.03125 9.59375 C 27.332031 10.71875 27.726562 11.492188 28.21875 11.921875 L 4.375 11.921875 C 4.914062 11.492188 5.320312 10.71875 5.59375 9.59375 C 5.875 8.476562 6.015625 6.738281 6.015625 4.375 L 6.015625 -45.515625 C 6.015625 -46.671875 5.507812 -47.550781 4.5 -48.15625 C 3.5 -48.757812 2.609375 -48.664062 1.828125 -47.875 C 3.097656 -49.269531 4.628906 -50.363281 6.421875 -51.15625 C 8.210938 -51.945312 10.046875 -52.3125 11.921875 -52.25 C 15.503906 -52.25 18.644531 -51.125 21.34375 -48.875 C 24.039062 -46.632812 25.695312 -43.785156 26.3125 -40.328125 C 27.40625 -42.085938 28.753906 -43.847656 30.359375 -45.609375 C 31.960938 -47.367188 33.882812 -48.835938 36.125 -50.015625 C 38.375 -51.203125 40.957031 -51.796875 43.875 -51.796875 Z M 32.40625 -8.921875 C 34.34375 -8.921875 36.160156 -9.617188 37.859375 -11.015625 C 39.566406 -12.410156 40.960938 -14.378906 42.046875 -16.921875 C 43.140625 -19.472656 43.6875 -22.453125 43.6875 -25.859375 C 43.6875 -28.523438 43.351562 -30.890625 42.6875 -32.953125 C 42.019531 -35.015625 41.140625 -36.773438 40.046875 -38.234375 C 37.804688 -41.265625 35.109375 -42.78125 31.953125 -42.78125 L 31.671875 -42.78125 C 29.609375 -42.664062 27.851562 -41.785156 26.40625 -40.140625 C 26.457031 -39.710938 26.5 -39.285156 26.53125 -38.859375 C 26.5625 -38.441406 26.578125 -38.019531 26.578125 -37.59375 L 26.578125 -15.65625 C 26.578125 -13.71875 27.195312 -12.109375 28.4375 -10.828125 C 29.6875 -9.554688 31.007812 -8.921875 32.40625 -8.921875 Z M 32.40625 -8.921875 "/></g></g></g><g fill="#fffdf5" fill-opacity="1"><g transform="translate(293.987794, 549.374929)"><g><path d="M 1.828125 0 C 2.304688 -0.425781 2.695312 -1.195312 3 -2.3125 C 3.300781 -3.4375 3.453125 -5.1875 3.453125 -7.5625 L 3.453125 -56.171875 C 3.453125 -58.535156 3.300781 -60.273438 3 -61.390625 C 2.695312 -62.515625 2.304688 -63.289062 1.828125 -63.71875 L 25.671875 -63.71875 C 25.117188 -63.289062 24.707031 -62.515625 24.4375 -61.390625 C 24.164062 -60.273438 24.03125 -58.535156 24.03125 -56.171875 L 24.03125 -7.5625 C 24.03125 -5.1875 24.164062 -3.4375 24.4375 -2.3125 C 24.707031 -1.195312 25.117188 -0.425781 25.671875 0 Z M 1.828125 0 "/></g></g></g><g fill="#fffdf5" fill-opacity="1"><g transform="translate(321.475687, 549.374929)"><g><path d="M 60.4375 -8.5625 C 60.625 -7.894531 61.019531 -7.363281 61.625 -6.96875 C 62.226562 -6.570312 62.878906 -6.398438 63.578125 -6.453125 C 64.273438 -6.515625 64.78125 -6.851562 65.09375 -7.46875 C 64.175781 -5.582031 62.898438 -4.03125 61.265625 -2.8125 C 59.628906 -1.601562 57.78125 -0.753906 55.71875 -0.265625 C 53.164062 0.210938 50.703125 0.0703125 48.328125 -0.6875 C 45.960938 -1.445312 43.898438 -2.71875 42.140625 -4.5 C 40.378906 -6.289062 39.164062 -8.460938 38.5 -11.015625 L 37.6875 -14.015625 C 37.5 -12.378906 37.046875 -10.832031 36.328125 -9.375 C 34.742188 -6.15625 32.585938 -3.679688 29.859375 -1.953125 C 27.128906 -0.222656 24.203125 0.804688 21.078125 1.140625 C 17.953125 1.472656 14.976562 1.109375 12.15625 0.046875 C 9.332031 -1.015625 6.960938 -2.710938 5.046875 -5.046875 C 3.140625 -7.390625 2.09375 -10.347656 1.90625 -13.921875 C 1.789062 -16.835938 2.414062 -19.28125 3.78125 -21.25 C 5.144531 -23.226562 6.960938 -24.835938 9.234375 -26.078125 C 11.515625 -27.328125 13.941406 -28.285156 16.515625 -28.953125 C 19.097656 -29.617188 21.539062 -30.085938 23.84375 -30.359375 C 26.15625 -30.628906 28.050781 -30.796875 29.53125 -30.859375 C 31.019531 -30.921875 31.765625 -30.953125 31.765625 -30.953125 L 33.046875 -30.953125 L 30.59375 -39.6875 C 30.039062 -41.8125 28.914062 -43.390625 27.21875 -44.421875 C 25.519531 -45.453125 23.679688 -45.890625 21.703125 -45.734375 C 19.734375 -45.585938 18.019531 -44.695312 16.5625 -43.0625 C 18.8125 -45.601562 21.375 -47.46875 24.25 -48.65625 C 27.132812 -49.84375 30.078125 -50.40625 33.078125 -50.34375 C 36.085938 -50.28125 38.972656 -49.609375 41.734375 -48.328125 C 44.492188 -47.054688 46.890625 -45.253906 48.921875 -42.921875 C 50.960938 -40.585938 52.4375 -37.78125 53.34375 -34.5 L 57.171875 -20.671875 Z M 31.671875 -7.28125 C 33.742188 -7.582031 35.296875 -8.582031 36.328125 -10.28125 C 37.472656 -11.976562 37.742188 -13.832031 37.140625 -15.84375 L 33.046875 -30.671875 C 30.859375 -30.128906 28.929688 -29.050781 27.265625 -27.4375 C 25.597656 -25.832031 24.335938 -23.953125 23.484375 -21.796875 C 22.640625 -19.648438 22.273438 -17.390625 22.390625 -15.015625 C 22.515625 -12.835938 23.394531 -10.988281 25.03125 -9.46875 C 26.664062 -7.945312 28.609375 -7.1875 30.859375 -7.1875 C 31.222656 -7.1875 31.492188 -7.21875 31.671875 -7.28125 Z M 31.671875 -7.28125 "/></g></g></g><g fill="#fffdf5" fill-opacity="1"><g transform="translate(388.375037, 549.374929)"><g><path d="M 53.078125 -16.015625 C 54.046875 -16.992188 54.832031 -18 55.4375 -19.03125 C 53.863281 -14.539062 51.222656 -10.71875 47.515625 -7.5625 C 44.722656 -5.1875 41.628906 -3.347656 38.234375 -2.046875 C 34.835938 -0.742188 31.316406 -0.0625 27.671875 0 C 24.085938 0 20.734375 -0.664062 17.609375 -2 C 14.484375 -3.332031 11.738281 -5.179688 9.375 -7.546875 C 7.007812 -9.921875 5.160156 -12.671875 3.828125 -15.796875 C 2.492188 -18.921875 1.828125 -22.273438 1.828125 -25.859375 C 1.828125 -29.367188 2.523438 -32.671875 3.921875 -35.765625 C 5.316406 -38.867188 7.226562 -41.601562 9.65625 -43.96875 C 12.082031 -46.332031 14.875 -48.210938 18.03125 -49.609375 C 21.1875 -51.003906 24.519531 -51.734375 28.03125 -51.796875 C 30.644531 -51.859375 32.691406 -51.828125 34.171875 -51.703125 C 35.660156 -51.585938 36.96875 -51.40625 38.09375 -51.15625 C 39.21875 -50.914062 40.539062 -50.582031 42.0625 -50.15625 C 46.125 -49.0625 50.003906 -47.453125 53.703125 -45.328125 L 38.59375 -23.578125 C 38.59375 -23.578125 38.863281 -24.226562 39.40625 -25.53125 C 39.957031 -26.832031 40.566406 -28.515625 41.234375 -30.578125 C 41.898438 -32.648438 42.414062 -34.851562 42.78125 -37.1875 C 43.144531 -39.519531 43.113281 -41.71875 42.6875 -43.78125 C 42.207031 -46.269531 41.191406 -48.101562 39.640625 -49.28125 C 38.097656 -50.46875 36.320312 -50.96875 34.3125 -50.78125 C 32.3125 -50.601562 30.351562 -49.738281 28.4375 -48.1875 C 26.53125 -46.644531 24.9375 -44.382812 23.65625 -41.40625 C 22.382812 -38.4375 21.75 -34.769531 21.75 -30.40625 C 21.75 -27.25 22.429688 -24.273438 23.796875 -21.484375 C 25.171875 -18.691406 27.054688 -16.367188 29.453125 -14.515625 C 31.847656 -12.671875 34.59375 -11.503906 37.6875 -11.015625 C 40.539062 -10.585938 43.316406 -10.8125 46.015625 -11.6875 C 48.710938 -12.570312 51.066406 -14.015625 53.078125 -16.015625 Z M 53.078125 -16.015625 "/></g></g></g><g fill="#fffdf5" fill-opacity="1"><g transform="translate(445.626299, 549.374929)"><g><path d="M 53.078125 -16.015625 C 54.046875 -16.992188 54.832031 -18 55.4375 -19.03125 C 53.863281 -14.539062 51.222656 -10.71875 47.515625 -7.5625 C 44.722656 -5.1875 41.628906 -3.347656 38.234375 -2.046875 C 34.835938 -0.742188 31.316406 -0.0625 27.671875 0 C 24.085938 0 20.734375 -0.664062 17.609375 -2 C 14.484375 -3.332031 11.738281 -5.179688 9.375 -7.546875 C 7.007812 -9.921875 5.160156 -12.671875 3.828125 -15.796875 C 2.492188 -18.921875 1.828125 -22.273438 1.828125 -25.859375 C 1.828125 -29.429688 2.492188 -32.796875 3.828125 -35.953125 C 5.160156 -39.109375 7.007812 -41.867188 9.375 -44.234375 C 11.738281 -46.609375 14.484375 -48.460938 17.609375 -49.796875 C 20.734375 -51.128906 24.085938 -51.796875 27.671875 -51.796875 L 30.046875 -51.796875 C 34.046875 -51.796875 37.789062 -50.929688 41.28125 -49.203125 C 44.769531 -47.472656 47.742188 -45.101562 50.203125 -42.09375 C 52.660156 -39.09375 54.34375 -35.617188 55.25 -31.671875 L 21.75 -31.671875 L 21.75 -29.953125 C 21.75 -26.796875 22.445312 -23.863281 23.84375 -21.15625 C 25.238281 -18.457031 27.164062 -16.195312 29.625 -14.375 C 32.082031 -12.5625 34.859375 -11.441406 37.953125 -11.015625 C 40.742188 -10.585938 43.457031 -10.828125 46.09375 -11.734375 C 48.738281 -12.648438 51.066406 -14.078125 53.078125 -16.015625 Z M 21.75 -44.703125 L 21.75 -32.046875 L 35.3125 -32.046875 L 35.3125 -44.703125 C 35.3125 -46.578125 34.660156 -48.164062 33.359375 -49.46875 C 32.054688 -50.78125 30.460938 -51.4375 28.578125 -51.4375 C 26.703125 -51.4375 25.09375 -50.78125 23.75 -49.46875 C 22.414062 -48.164062 21.75 -46.578125 21.75 -44.703125 Z M 21.75 -44.703125 "/></g></g></g><g fill="#fffdf5" fill-opacity="1"><g transform="translate(502.87756, 549.374929)"><g><path d="M 34.3125 0 C 34.800781 -0.425781 35.195312 -1.195312 35.5 -2.3125 C 35.800781 -3.4375 35.953125 -5.1875 35.953125 -7.5625 C 35.953125 -7.5625 35.953125 -8.578125 35.953125 -10.609375 C 35.953125 -12.640625 35.953125 -15.273438 35.953125 -18.515625 C 35.953125 -21.765625 35.953125 -25.207031 35.953125 -28.84375 C 35.953125 -32.488281 35.953125 -35.890625 35.953125 -39.046875 C 35.953125 -40.328125 35.617188 -41.507812 34.953125 -42.59375 C 34.285156 -43.6875 33.375 -44.539062 32.21875 -45.15625 C 29.738281 -46.425781 27.34375 -46.210938 25.03125 -44.515625 L 24.9375 -44.421875 C 24.695312 -44.359375 24.394531 -44.085938 24.03125 -43.609375 L 24.03125 -7.5625 C 24.03125 -5.1875 24.164062 -3.4375 24.4375 -2.3125 C 24.707031 -1.195312 25.117188 -0.425781 25.671875 0 L 1.828125 0 C 2.304688 -0.425781 2.695312 -1.195312 3 -2.3125 C 3.300781 -3.4375 3.453125 -5.1875 3.453125 -7.5625 L 3.453125 -56.171875 C 3.453125 -58.535156 3.300781 -60.273438 3 -61.390625 C 2.695312 -62.515625 2.304688 -63.289062 1.828125 -63.71875 L 25.671875 -63.71875 C 25.117188 -63.289062 24.707031 -62.515625 24.4375 -61.390625 C 24.164062 -60.273438 24.03125 -58.535156 24.03125 -56.171875 L 24.03125 -44.0625 C 24.21875 -44.238281 24.414062 -44.429688 24.625 -44.640625 C 24.832031 -44.859375 24.96875 -45 25.03125 -45.0625 L 29.578125 -48.34375 C 32.367188 -50.46875 35.328125 -51.601562 38.453125 -51.75 C 41.585938 -51.90625 44.519531 -51.296875 47.25 -49.921875 C 49.976562 -48.554688 52.207031 -46.566406 53.9375 -43.953125 C 55.664062 -41.347656 56.53125 -38.316406 56.53125 -34.859375 L 56.53125 -7.5625 C 56.53125 -5.1875 56.664062 -3.4375 56.9375 -2.3125 C 57.207031 -1.195312 57.585938 -0.425781 58.078125 0 Z M 34.3125 0 "/></g></g></g><g fill="#fffdf5" fill-opacity="1"><g transform="translate(562.768401, 549.374929)"><g><path d="M 30.671875 -51.796875 C 34.253906 -51.796875 37.609375 -51.128906 40.734375 -49.796875 C 43.859375 -48.460938 46.617188 -46.59375 49.015625 -44.1875 C 51.410156 -41.789062 53.273438 -39.03125 54.609375 -35.90625 C 55.953125 -32.78125 56.625 -29.429688 56.625 -25.859375 C 56.625 -22.273438 55.953125 -18.921875 54.609375 -15.796875 C 53.273438 -12.671875 51.410156 -9.921875 49.015625 -7.546875 C 46.617188 -5.179688 43.859375 -3.332031 40.734375 -2 C 37.609375 -0.664062 34.253906 0 30.671875 0 L 27.671875 0 C 24.085938 0 20.734375 -0.664062 17.609375 -2 C 14.484375 -3.332031 11.738281 -5.179688 9.375 -7.546875 C 7.007812 -9.921875 5.160156 -12.671875 3.828125 -15.796875 C 2.492188 -18.921875 1.828125 -22.273438 1.828125 -25.859375 C 1.828125 -29.429688 2.492188 -32.78125 3.828125 -35.90625 C 5.160156 -39.03125 7.007812 -41.789062 9.375 -44.1875 C 11.738281 -46.59375 14.484375 -48.460938 17.609375 -49.796875 C 20.734375 -51.128906 24.085938 -51.796875 27.671875 -51.796875 Z M 36.046875 -7.09375 L 36.046875 -44.609375 C 36.046875 -46.546875 35.378906 -48.164062 34.046875 -49.46875 C 32.710938 -50.78125 31.101562 -51.4375 29.21875 -51.4375 C 27.34375 -51.4375 25.734375 -50.78125 24.390625 -49.46875 C 23.054688 -48.164062 22.390625 -46.546875 22.390625 -44.609375 L 22.390625 -7.09375 C 22.390625 -5.21875 23.054688 -3.609375 24.390625 -2.265625 C 25.734375 -0.929688 27.34375 -0.265625 29.21875 -0.265625 C 31.101562 -0.265625 32.710938 -0.929688 34.046875 -2.265625 C 35.378906 -3.609375 36.046875 -5.21875 36.046875 -7.09375 Z M 36.046875 -7.09375 "/></g></g></g><g fill="#fffdf5" fill-opacity="1"><g transform="translate(621.202912, 549.374929)"><g><path d="M 1.828125 0 C 2.304688 -0.425781 2.695312 -1.195312 3 -2.3125 C 3.300781 -3.4375 3.453125 -5.1875 3.453125 -7.5625 L 3.453125 -56.171875 C 3.453125 -58.535156 3.300781 -60.273438 3 -61.390625 C 2.695312 -62.515625 2.304688 -63.289062 1.828125 -63.71875 L 25.671875 -63.71875 C 25.117188 -63.289062 24.707031 -62.515625 24.4375 -61.390625 C 24.164062 -60.273438 24.03125 -58.535156 24.03125 -56.171875 L 24.03125 -7.5625 C 24.03125 -5.1875 24.164062 -3.4375 24.4375 -2.3125 C 24.707031 -1.195312 25.117188 -0.425781 25.671875 0 Z M 1.828125 0 "/></g></g></g><g fill="#fffdf5" fill-opacity="1"><g transform="translate(648.690794, 549.374929)"><g><path d="M 59.984375 -6.1875 C 59.984375 -5.09375 60.484375 -4.242188 61.484375 -3.640625 C 62.492188 -3.035156 63.390625 -3.128906 64.171875 -3.921875 C 61.503906 -0.941406 58.140625 0.546875 54.078125 0.546875 C 51.765625 0.546875 49.59375 0.03125 47.5625 -1 C 45.53125 -2.03125 43.816406 -3.457031 42.421875 -5.28125 C 41.023438 -7.101562 40.113281 -9.164062 39.6875 -11.46875 C 38.65625 -9.707031 37.316406 -7.929688 35.671875 -6.140625 C 34.035156 -4.347656 32.109375 -2.875 29.890625 -1.71875 C 27.679688 -0.570312 25.09375 0 22.125 0 C 18.414062 0 15.015625 -1.164062 11.921875 -3.5 C 8.828125 -5.84375 6.367188 -8.96875 4.546875 -12.875 C 2.734375 -16.789062 1.828125 -21.117188 1.828125 -25.859375 C 1.828125 -30.648438 2.734375 -35 4.546875 -38.90625 C 6.367188 -42.820312 8.828125 -45.945312 11.921875 -48.28125 C 15.015625 -50.625 18.414062 -51.796875 22.125 -51.796875 C 24.851562 -51.796875 27.203125 -51.351562 29.171875 -50.46875 C 31.148438 -49.59375 32.804688 -48.503906 34.140625 -47.203125 C 35.472656 -45.898438 36.519531 -44.578125 37.28125 -43.234375 C 38.039062 -41.898438 38.585938 -40.789062 38.921875 -39.90625 C 39.253906 -39.03125 39.421875 -38.59375 39.421875 -38.59375 L 39.421875 -56.171875 C 39.421875 -58.535156 39.265625 -60.273438 38.953125 -61.390625 C 38.648438 -62.515625 38.257812 -63.289062 37.78125 -63.71875 L 61.625 -63.71875 C 61.144531 -63.289062 60.75 -62.515625 60.4375 -61.390625 C 60.132812 -60.273438 59.984375 -58.535156 59.984375 -56.171875 Z M 34.3125 -9.015625 C 35.34375 -9.078125 36.328125 -9.332031 37.265625 -9.78125 C 38.210938 -10.238281 38.988281 -10.863281 39.59375 -11.65625 C 39.53125 -12.082031 39.484375 -12.503906 39.453125 -12.921875 C 39.429688 -13.347656 39.421875 -13.773438 39.421875 -14.203125 L 39.421875 -36.140625 C 39.421875 -38.078125 38.796875 -39.664062 37.546875 -40.90625 C 36.304688 -42.15625 34.988281 -42.78125 33.59375 -42.78125 C 31.707031 -42.78125 29.898438 -42.082031 28.171875 -40.6875 C 26.441406 -39.289062 25.03125 -37.332031 23.9375 -34.8125 C 22.84375 -32.300781 22.296875 -29.34375 22.296875 -25.9375 C 22.296875 -23.332031 22.628906 -20.984375 23.296875 -18.890625 C 23.972656 -16.796875 24.851562 -14.988281 25.9375 -13.46875 C 28.1875 -10.5 30.890625 -9.015625 34.046875 -9.015625 Z M 34.3125 -9.015625 "/></g></g></g><g fill="#fffdf5" fill-opacity="1"><g transform="translate(714.679985, 549.374929)"><g><path d="M 53.078125 -16.015625 C 54.046875 -16.992188 54.832031 -18 55.4375 -19.03125 C 53.863281 -14.539062 51.222656 -10.71875 47.515625 -7.5625 C 44.722656 -5.1875 41.628906 -3.347656 38.234375 -2.046875 C 34.835938 -0.742188 31.316406 -0.0625 27.671875 0 C 24.085938 0 20.734375 -0.664062 17.609375 -2 C 14.484375 -3.332031 11.738281 -5.179688 9.375 -7.546875 C 7.007812 -9.921875 5.160156 -12.671875 3.828125 -15.796875 C 2.492188 -18.921875 1.828125 -22.273438 1.828125 -25.859375 C 1.828125 -29.429688 2.492188 -32.796875 3.828125 -35.953125 C 5.160156 -39.109375 7.007812 -41.867188 9.375 -44.234375 C 11.738281 -46.609375 14.484375 -48.460938 17.609375 -49.796875 C 20.734375 -51.128906 24.085938 -51.796875 27.671875 -51.796875 L 30.046875 -51.796875 C 34.046875 -51.796875 37.789062 -50.929688 41.28125 -49.203125 C 44.769531 -47.472656 47.742188 -45.101562 50.203125 -42.09375 C 52.660156 -39.09375 54.34375 -35.617188 55.25 -31.671875 L 21.75 -31.671875 L 21.75 -29.953125 C 21.75 -26.796875 22.445312 -23.863281 23.84375 -21.15625 C 25.238281 -18.457031 27.164062 -16.195312 29.625 -14.375 C 32.082031 -12.5625 34.859375 -11.441406 37.953125 -11.015625 C 40.742188 -10.585938 43.457031 -10.828125 46.09375 -11.734375 C 48.738281 -12.648438 51.066406 -14.078125 53.078125 -16.015625 Z M 21.75 -44.703125 L 21.75 -32.046875 L 35.3125 -32.046875 L 35.3125 -44.703125 C 35.3125 -46.578125 34.660156 -48.164062 33.359375 -49.46875 C 32.054688 -50.78125 30.460938 -51.4375 28.578125 -51.4375 C 26.703125 -51.4375 25.09375 -50.78125 23.75 -49.46875 C 22.414062 -48.164062 21.75 -46.578125 21.75 -44.703125 Z M 21.75 -44.703125 "/></g></g></g><g fill="#fffdf5" fill-opacity="1"><g transform="translate(771.931247, 549.374929)"><g><path d="M 46.0625 -40.046875 L 32.953125 -33.59375 C 33.015625 -34.5 32.878906 -35.648438 32.546875 -37.046875 C 32.210938 -38.441406 31.679688 -39.65625 30.953125 -40.6875 C 30.222656 -41.71875 29.25 -42.175781 28.03125 -42.0625 C 26.882812 -41.9375 25.929688 -41.445312 25.171875 -40.59375 C 24.410156 -39.75 24.03125 -38.75 24.03125 -37.59375 L 24.03125 -7.5625 C 24.03125 -5.1875 24.164062 -3.4375 24.4375 -2.3125 C 24.707031 -1.195312 25.117188 -0.425781 25.671875 0 L 1.828125 0 C 2.304688 -0.425781 2.695312 -1.195312 3 -2.3125 C 3.300781 -3.4375 3.453125 -5.1875 3.453125 -7.5625 L 3.453125 -50.703125 C 3.453125 -50.703125 3.863281 -50.351562 4.6875 -49.65625 C 5.507812 -48.957031 6.785156 -48.304688 8.515625 -47.703125 C 10.242188 -47.097656 12.503906 -46.976562 15.296875 -47.34375 C 16.804688 -47.519531 18.304688 -47.847656 19.796875 -48.328125 C 21.285156 -48.816406 22.695312 -49.394531 24.03125 -50.0625 L 24.03125 -39.234375 C 24.15625 -39.722656 24.273438 -40.222656 24.390625 -40.734375 C 24.515625 -41.253906 24.695312 -41.722656 24.9375 -42.140625 C 26.21875 -44.878906 27.929688 -46.851562 30.078125 -48.0625 C 32.234375 -49.28125 34.460938 -49.765625 36.765625 -49.515625 C 39.078125 -49.273438 41.113281 -48.347656 42.875 -46.734375 C 44.632812 -45.128906 45.695312 -42.898438 46.0625 -40.046875 Z M 46.0625 -40.046875 "/></g></g></g><g fill="#fffdf5" fill-opacity="1"><g transform="translate(819.807509, 549.374929)"><g><path d="M 2.28125 -71.921875 L 32.765625 -71.921875 L 32.765625 4.09375 L 2.28125 4.09375 L 2.28125 2.734375 L 13.203125 2.734375 L 13.203125 -70.546875 L 2.28125 -70.546875 Z M 2.28125 -71.921875 "/></g></g></g></svg>