<svg xmlns="http://www.w3.org/2000/svg" xmlns:xlink="http://www.w3.org/1999/xlink" zoomAndPan="magnify" viewBox="450 480 150 90" preserveAspectRatio="xMidYMid meet" version="1.0"><defs><g/></defs><g fill="#fffdf5" fill-opacity="1"><g transform="translate(462.058548, 549.374929)"><g><path d="M 43.875 -51.796875 C 47.632812 -51.796875 51.046875 -50.625 54.109375 -48.28125 C 57.179688 -45.945312 59.625 -42.820312 61.4375 -38.90625 C 63.257812 -35 64.171875 -30.648438 64.171875 -25.859375 C 64.171875 -21.117188 63.257812 -16.789062 61.4375 -12.875 C 59.625 -8.96875 57.179688 -5.84375 54.109375 -3.5 C 51.046875 -1.164062 47.632812 0 43.875 0 C 41.144531 0 38.789062 -0.4375 36.8125 -1.3125 C 34.84375 -2.195312 33.191406 -3.289062 31.859375 -4.59375 C 30.523438 -5.894531 29.476562 -7.195312 28.71875 -8.5 C 27.957031 -9.8125 27.410156 -10.90625 27.078125 -11.78125 C 26.742188 -12.664062 26.578125 -13.109375 26.578125 -13.109375 L 26.578125 4.375 C 26.578125 6.738281 26.726562 8.476562 27.03125 9.59375 C 27.332031 10.71875 27.726562 11.492188 28.21875 11.921875 L 4.375 11.921875 C 4.914062 11.492188 5.320312 10.71875 5.59375 9.59375 C 5.875 8.476562 6.015625 6.738281 6.015625 4.375 L 6.015625 -45.515625 C 6.015625 -46.671875 5.507812 -47.550781 4.5 -48.15625 C 3.5 -48.757812 2.609375 -48.664062 1.828125 -47.875 C 3.097656 -49.269531 4.628906 -50.363281 6.421875 -51.15625 C 8.210938 -51.945312 10.046875 -52.3125 11.921875 -52.25 C 15.503906 -52.25 18.644531 -51.125 21.34375 -48.875 C 24.039062 -46.632812 25.695312 -43.785156 26.3125 -40.328125 C 27.40625 -42.085938 28.753906 -43.847656 30.359375 -45.609375 C 31.960938 -47.367188 33.882812 -48.835938 36.125 -50.015625 C 38.375 -51.203125 40.957031 -51.796875 43.875 -51.796875 Z M 32.40625 -8.921875 C 34.34375 -8.921875 36.160156 -9.617188 37.859375 -11.015625 C 39.566406 -12.410156 40.960938 -14.378906 42.046875 -16.921875 C 43.140625 -19.472656 43.6875 -22.453125 43.6875 -25.859375 C 43.6875 -28.523438 43.351562 -30.890625 42.6875 -32.953125 C 42.019531 -35.015625 41.140625 -36.773438 40.046875 -38.234375 C 37.804688 -41.265625 35.109375 -42.78125 31.953125 -42.78125 L 31.671875 -42.78125 C 29.609375 -42.664062 27.851562 -41.785156 26.40625 -40.140625 C 26.457031 -39.710938 26.5 -39.285156 26.53125 -38.859375 C 26.5625 -38.441406 26.578125 -38.019531 26.578125 -37.59375 L 26.578125 -15.65625 C 26.578125 -13.71875 27.195312 -12.109375 28.4375 -10.828125 C 29.6875 -9.554688 31.007812 -8.921875 32.40625 -8.921875 Z M 32.40625 -8.921875 "/></g></g></g><g fill="#fffdf5" fill-opacity="1"><g transform="translate(528.047693, 549.374929)"><g><path d="M 34.3125 0 C 34.800781 -0.425781 35.195312 -1.195312 35.5 -2.3125 C 35.800781 -3.4375 35.953125 -5.1875 35.953125 -7.5625 C 35.953125 -7.5625 35.953125 -8.578125 35.953125 -10.609375 C 35.953125 -12.640625 35.953125 -15.273438 35.953125 -18.515625 C 35.953125 -21.765625 35.953125 -25.207031 35.953125 -28.84375 C 35.953125 -32.488281 35.953125 -35.890625 35.953125 -39.046875 C 35.953125 -40.328125 35.617188 -41.507812 34.953125 -42.59375 C 34.285156 -43.6875 33.375 -44.539062 32.21875 -45.15625 C 29.738281 -46.425781 27.34375 -46.210938 25.03125 -44.515625 L 24.9375 -44.421875 C 24.695312 -44.359375 24.394531 -44.085938 24.03125 -43.609375 L 24.03125 -7.5625 C 24.03125 -5.1875 24.164062 -3.4375 24.4375 -2.3125 C 24.707031 -1.195312 25.117188 -0.425781 25.671875 0 L 1.828125 0 C 2.304688 -0.425781 2.695312 -1.195312 3 -2.3125 C 3.300781 -3.4375 3.453125 -5.1875 3.453125 -7.5625 L 3.453125 -56.171875 C 3.453125 -58.535156 3.300781 -60.273438 3 -61.390625 C 2.695312 -62.515625 2.304688 -63.289062 1.828125 -63.71875 L 25.671875 -63.71875 C 25.117188 -63.289062 24.707031 -62.515625 24.4375 -61.390625 C 24.164062 -60.273438 24.03125 -58.535156 24.03125 -56.171875 L 24.03125 -44.0625 C 24.21875 -44.238281 24.414062 -44.429688 24.625 -44.640625 C 24.832031 -44.859375 24.96875 -45 25.03125 -45.0625 L 29.578125 -48.34375 C 32.367188 -50.46875 35.328125 -51.601562 38.453125 -51.75 C 41.585938 -51.90625 44.519531 -51.296875 47.25 -49.921875 C 49.976562 -48.554688 52.207031 -46.566406 53.9375 -43.953125 C 55.664062 -41.347656 56.53125 -38.316406 56.53125 -34.859375 L 56.53125 -7.5625 C 56.53125 -5.1875 56.664062 -3.4375 56.9375 -2.3125 C 57.207031 -1.195312 57.585938 -0.425781 58.078125 0 Z M 34.3125 0 "/></g></g></g></svg>